<svg xmlns="http://www.w3.org/2000/svg" viewBox="0 0 24 24" fill="none">
  <style>
    .h { fill: #1c1a17; }
    .dot { fill: #9a6a1c; }
    @media (prefers-color-scheme: dark) {
      .h { fill: #f4efe7; }
      .dot { fill: #e6b341; }
    }
  </style>
  <g class="h">
    <rect x="2.5" y="0.5" width="3" height="3" rx="0.7"/>
    <rect x="2.5" y="4.5" width="3" height="3" rx="0.7"/>
    <rect x="2.5" y="8.5" width="3" height="3" rx="0.7"/>
    <rect x="2.5" y="12.5" width="3" height="3" rx="0.7"/>
    <rect x="2.5" y="16.5" width="3" height="3" rx="0.7"/>
    <rect x="6.5" y="8.5" width="3" height="3" rx="0.7"/>
    <rect x="10.5" y="8.5" width="3" height="3" rx="0.7"/>
    <rect x="14.5" y="8.5" width="3" height="3" rx="0.7"/>
    <rect x="18.5" y="0.5" width="3" height="3" rx="0.7"/>
    <rect x="18.5" y="4.5" width="3" height="3" rx="0.7"/>
    <rect x="18.5" y="8.5" width="3" height="3" rx="0.7"/>
    <rect x="18.5" y="12.5" width="3" height="3" rx="0.7"/>
    <rect x="18.5" y="16.5" width="3" height="3" rx="0.7"/>
  </g>
  <rect class="dot" x="18.5" y="20.5" width="3" height="3" rx="0.7"/>
</svg>
